<svg xmlns="http://www.w3.org/2000/svg" width="400" height="250" viewBox="0 0 400 250" role="img" aria-labelledby="title desc">
  <title id="title">relayfile architecture stack</title>
  <desc id="desc">Cloudflare Workers connect to a Durable Object per workspace, which stores content in R2 and metadata in D1, with a Mount Daemon attached over HTTP and WebSocket.</desc>
  <rect width="400" height="250" fill="#09090b"/>

  <g stroke="#22d3ee" stroke-width="2" fill="none" stroke-linecap="round" stroke-linejoin="round">
    <rect x="120" y="22" width="160" height="42" rx="14"/>
    <rect x="96" y="88" width="208" height="52" rx="14"/>
    <rect x="84" y="170" width="106" height="52" rx="14"/>
    <rect x="210" y="170" width="106" height="52" rx="14"/>
    <rect x="18" y="92" width="62" height="86" rx="14"/>

    <line x1="200" y1="64" x2="200" y2="88"/>
    <path d="M194 80l6 8 6-8"/>

    <line x1="154" y1="140" x2="137" y2="170"/>
    <path d="M135 161l2 9 8-5"/>

    <line x1="246" y1="140" x2="263" y2="170"/>
    <path d="M255 165l8 5 2-9"/>

    <line x1="80" y1="116" x2="96" y2="116"/>
    <path d="M90 110l6 6-6 6"/>
    <path d="M86 104l-6 12 6 12"/>

    <line x1="80" y1="142" x2="96" y2="142"/>
    <path d="M90 136l6 6-6 6"/>
    <path d="M86 130l-6 12 6 12"/>
  </g>

  <g fill="#ffffff" font-family="ui-sans-serif, system-ui, -apple-system, BlinkMacSystemFont, 'Segoe UI', sans-serif" text-anchor="middle">
    <text x="200" y="48" font-size="15" font-weight="700">Cloudflare Workers</text>

    <text x="200" y="114" font-size="15" font-weight="700">Durable Object</text>
    <text x="200" y="130" font-size="11" fill="#a1a1aa">per workspace</text>

    <text x="137" y="196" font-size="15" font-weight="700">R2</text>
    <text x="137" y="212" font-size="11" fill="#a1a1aa">content</text>

    <text x="263" y="196" font-size="15" font-weight="700">D1</text>
    <text x="263" y="212" font-size="11" fill="#a1a1aa">metadata</text>

    <text x="49" y="118" font-size="13" font-weight="700">Mount</text>
    <text x="49" y="134" font-size="13" font-weight="700">Daemon</text>
    <text x="49" y="156" font-size="10" fill="#a1a1aa">HTTP / WS</text>
  </g>
</svg>
