<svg xmlns="http://www.w3.org/2000/svg" viewBox="0 0 400 250" width="400" height="250" role="img" aria-labelledby="title desc">
  <title id="title">Multi-agent collaboration through RelayFile</title>
  <desc id="desc">Backend Agent, Frontend Agent, and Human Developer sync through a shared relayfile workspace with file change events flowing across connections.</desc>
  <rect width="400" height="250" fill="#09090b"/>
  <g stroke="#22d3ee" stroke-width="2" fill="none" stroke-linecap="round" stroke-linejoin="round">
    <rect x="134" y="88" width="132" height="74" rx="18"/>
    <rect x="28" y="26" width="108" height="54" rx="16"/>
    <rect x="264" y="26" width="108" height="54" rx="16"/>
    <rect x="146" y="182" width="108" height="42" rx="16"/>

    <line x1="136" y1="78" x2="170" y2="96"/>
    <path d="M161 88l9 8-12 0"/>
    <path d="M154 77l-10 0 4 10"/>

    <line x1="264" y1="78" x2="230" y2="96"/>
    <path d="M242 88l-12 8 3-13"/>
    <path d="M251 77h10l-4 10"/>

    <line x1="200" y1="182" x2="200" y2="162"/>
    <path d="M193 169l7-7 7 7"/>
    <path d="M193 175l7 7 7-7"/>

    <path d="M72 110c12-8 31-6 44 2"/>
    <path d="M328 110c-12-8-31-6-44 2"/>
    <path d="M110 194c28 12 152 12 180 0"/>

    <circle cx="94" cy="103" r="2.5" fill="#22d3ee"/>
    <circle cx="305" cy="103" r="2.5" fill="#22d3ee"/>
    <circle cx="200" cy="194" r="2.5" fill="#22d3ee"/>
  </g>
  <g fill="#fafafa" font-family="ui-sans-serif, system-ui, -apple-system, BlinkMacSystemFont, 'Segoe UI', sans-serif" text-anchor="middle">
    <text x="200" y="118" font-size="16" font-weight="600">relayfile</text>
    <text x="200" y="137" font-size="16" font-weight="600">workspace</text>
    <text x="82" y="58" font-size="14" font-weight="600">Backend Agent</text>
    <text x="318" y="58" font-size="14" font-weight="600">Frontend Agent</text>
    <text x="200" y="208" font-size="14" font-weight="600">Human Developer</text>

    <text x="95" y="119" font-size="10" fill="#a1a1aa">file change events</text>
    <text x="305" y="119" font-size="10" fill="#a1a1aa">sync events</text>
    <text x="200" y="240" font-size="10" fill="#a1a1aa">shared edits propagate across the workspace</text>
  </g>
</svg>
